<?xml version="1.0" encoding="UTF-8" standalone="no"?>
<svg
   xmlns:dc="http://purl.org/dc/elements/1.1/"
   xmlns:cc="http://creativecommons.org/ns#"
   xmlns:rdf="http://www.w3.org/1999/02/22-rdf-syntax-ns#"
   xmlns:svg="http://www.w3.org/2000/svg"
   xmlns="http://www.w3.org/2000/svg"
   xml:space="preserve"
   id="svg2114"
   viewBox="0 0 1288 4444.8"
   height="64"
   width="64"
   version="1.0"><metadata
     id="metadata88"><rdf:RDF><cc:Work
         rdf:about=""><dc:format>image/svg+xml</dc:format><dc:type
           rdf:resource="http://purl.org/dc/dcmitype/StillImage" /><dc:title></dc:title></cc:Work></rdf:RDF></metadata><defs
     id="defs2127" /><g
     id="g2189"
     transform="matrix(69.45,0,0,69.45,-8759.476,-4878.5969)"><g
       id="g2202"
       transform="matrix(0.00678145,0,0,0.00678145,183.01042,-2.3997196)"><path
         id="path2204"
         style="fill:#cccccc;fill-opacity:1;stroke-width:0.53365421"
         d="m -7034.8659,14500.507 c -1391.7702,0 -2518.848,695.885 -2518.848,1554.001 0,785.539 939.2315,1430.194 2155.9631,1541.194 v -452.539 c -819.6929,-102.462 -1434.4625,-550.731 -1434.4625,-1088.655 0,-610.5 802.6159,-1110.001 1797.3474,-1110.001 z" /><g
         style="opacity:1;vector-effect:none;fill:#cccccc;fill-opacity:1;stroke-width:0.00508609;stroke-linecap:butt;stroke-linejoin:miter;stroke-miterlimit:4;stroke-dasharray:none;stroke-dashoffset:0;stroke-opacity:1"
         id="g3787"
         transform="matrix(183.97573,-37.366543,-37.366543,-183.97573,-119628.68,72806.831)"><g
           style="vector-effect:none;fill:#cccccc;fill-opacity:1;stroke-width:0.05086088;stroke-linecap:butt;stroke-linejoin:miter;stroke-miterlimit:4;stroke-dasharray:none;stroke-dashoffset:0;stroke-opacity:1"
           id="g3789"
           transform="scale(0.1)"><g
             style="vector-effect:none;fill:#cccccc;fill-opacity:1;stroke-width:0.05086088;stroke-linecap:butt;stroke-linejoin:miter;stroke-miterlimit:4;stroke-dasharray:none;stroke-dashoffset:0;stroke-opacity:1"
             transform="translate(2969.26,-979.12716)"
             id="g4074"><path
               d="m 3539.2968,2820.667 c -0.2886,-1.6309 1.386,-3.3054 3.7786,-3.7517 2.3524,-0.4295 4.5302,0.5772 4.8289,2.1947 0.292,1.6711 -1.4127,3.3456 -3.7618,3.7785 -2.396,0.4161 -4.5403,-0.5638 -4.8457,-2.2215 v 0 m 15.433,-2.6276 c -0.057,-1.6711 1.8893,-3.057 4.2987,-3.0872 2.4229,-0.054 4.3826,1.2987 4.4095,2.9429 0,1.688 -1.9027,3.0605 -4.3256,3.1007 -2.4094,0.047 -4.3826,-1.2952 -4.3826,-2.9564 v 0 m 16.584,1.2149 c 0.49,-1.5873 2.7685,-2.3088 5.0639,-1.6343 2.2919,0.6947 3.7919,2.5537 3.3289,4.1578 -0.4766,1.5973 -2.7652,2.3489 -5.0773,1.6275 -2.2886,-0.6913 -3.792,-2.537 -3.3155,-4.151 v 0 m 15.1009,6.547 c 1.1107,-1.2249 3.4765,-0.896 5.208,0.7751 1.7719,1.6343 2.2651,3.9531 1.1511,5.1779 -1.1242,1.2282 -3.5034,0.8826 -5.2484,-0.7751 -1.7584,-1.6309 -2.2953,-3.9665 -1.1107,-5.1779 v 0 m 10.9463,11.2752 c 1.2417,-0.8624 3.2719,-0.054 4.5269,1.7484 1.2417,1.802 1.2417,3.9631 -0.027,4.8288 -1.2583,0.8658 -3.2584,0.084 -4.5302,-1.7013 -1.2383,-1.8322 -1.2383,-3.9933 0.03,-4.8759 v 0 m 7.99,11.6712 c 0.9665,-0.8959 2.8557,-0.4798 4.1376,0.9363 1.3256,1.4128 1.5739,3.3021 0.594,4.2115 -0.9967,0.8926 -2.8289,0.4731 -4.1577,-0.9363 -1.3256,-1.4295 -1.584,-3.3054 -0.5739,-4.2115 v 0 m 8.2081,9.1545 c 0.4464,-1.0101 2.0302,-1.3087 3.4732,-0.6174 1.4698,0.661 2.2953,2.0335 1.8188,3.0436 -0.4362,1.0335 -2.0235,1.3221 -3.4899,0.6342 -1.4732,-0.6644 -2.3122,-2.0504 -1.8021,-3.0604 v 0 m -75.1316,-55.181 c 56.3763,-12.2584 68.0037,22.5868 68.0037,22.5868 9.2182,23.423 22.5001,29.6512 22.5001,29.6512 18.3861,12.5773 -1.3859,12.3189 -1.3859,12.3189 -20.3491,-1.4262 -31.064,-20.8861 -31.064,-20.8861 -18.0739,-30.9767 -47.4063,-22.0203 -58.9702,-16.8424"
               style="vector-effect:none;fill:#cccccc;fill-opacity:1;fill-rule:evenodd;stroke:none;stroke-width:0.02714212;stroke-linecap:butt;stroke-linejoin:miter;stroke-miterlimit:4;stroke-dasharray:none;stroke-dashoffset:0;stroke-opacity:1"
               id="path3809" /></g></g></g><path
         id="path2206"
         style="fill:#ff6200;fill-opacity:1;stroke-width:0.53365421"
         d="m -7397.7508,13732.045 v 3411.118 452.539 l 721.5006,-452.539 v -3876.465 z" /></g><g
       id="g2208"
       transform="matrix(0.01377521,0,0,0.01377521,142.3208,-135.7131)" /></g></svg>